<svg width="3.1vw" height="60" viewBox="0 0 60 60" fill="none" xmlns="http://www.w3.org/2000/svg">
<path d="M35.7673 20.1693L35.357 23.8153C35.3329 24.0388 35.4118 24.2611 35.5712 24.4196C35.7294 24.585 35.9572 24.6648 36.1841 24.6339L39.8376 24.2181C39.9104 24.2096 39.9737 24.1753 40.0433 24.1603L35.823 19.9399C35.7999 20.0152 35.7813 20.0918 35.7673 20.1693Z" fill="#FFC300"/>
<path d="M37.1176 18.2139L48.7905 6.541L53.4771 11.2276L41.8042 22.9005L37.1176 18.2139Z" fill="#FFC300"/>
<path d="M50.2998 5.0127L51.8875 3.42503L56.5718 8.10932L54.9841 9.69698L50.2998 5.0127Z" fill="#FFC300"/>
<path d="M59.6641 5.02066C59.8778 4.81437 59.9989 4.53024 59.9994 4.23321C59.9999 3.93155 59.879 3.6424 59.6641 3.4307L56.5709 0.336397C56.36 0.121351 56.0717 0.000196838 55.7705 0C55.4754 0.00108261 55.1932 0.12076 54.9873 0.332165L53.4102 1.90609L58.0944 6.59025L59.6641 5.02066Z" fill="#FFC300"/>
<path d="M6.42961 44.9992H8.57239C9.16409 44.9992 9.64379 44.5195 9.64379 43.9278V1.07139C9.64388 0.479695 9.16419 0 8.57239 0H6.42961C2.88071 0.00354309 0.00470276 2.87955 0.00115967 6.42845V47.907C1.62586 46.0581 3.96824 44.9986 6.42961 44.9992Z" fill="#FFC300"/>
<path d="M6.73953 59.999H58.928C59.5197 59.999 59.9994 59.5193 59.9994 58.9276V16.0711C59.9994 15.4795 59.5197 14.9998 58.928 14.9998H52.7138L42.5418 25.1782C41.8741 25.833 41.0067 26.2458 40.0776 26.3513C36.4615 26.7574 36.4284 26.7853 36.1155 26.7853H20.3572V38.5708H46.0711V33.2137C46.0711 32.622 46.5508 32.1423 47.1425 32.1423C47.7342 32.1423 48.2139 32.622 48.2139 33.2137V49.2849C48.2139 50.4684 47.2545 51.4277 46.0711 51.4277H24.6428C24.0511 51.4277 23.5714 50.948 23.5714 50.3563C23.5714 49.7646 24.0511 49.2849 24.6428 49.2849H32.1426V40.7136H20.3572V55.7133C20.3572 56.305 19.8775 56.7847 19.2858 56.7847C18.6941 56.7847 18.2144 56.305 18.2144 55.7133V26.7853H15.0001C14.4085 26.7853 13.9288 26.3056 13.9288 25.7139C13.9288 25.1222 14.4085 24.6425 15.0001 24.6425H33.3309C33.2317 24.299 33.1979 23.9399 33.2313 23.5839L33.6374 19.9336C33.7419 18.9848 34.1711 18.1014 34.8524 17.433L37.2856 14.9998H11.7859V43.9278C11.7859 45.703 10.3468 47.1421 8.5716 47.1421H6.42882C2.87992 47.1456 0.0039093 50.0216 0.000366211 53.5705V53.8063C0.239525 57.3357 3.20253 60.0584 6.73953 59.999Z" fill="#FFC300"/>
<path d="M34.2855 40.7136H46.071V49.2849H34.2855V40.7136Z" fill="#FFC300"/>
</svg>
