<svg width="51" height="46" viewBox="0 0 51 46" fill="none" xmlns="http://www.w3.org/2000/svg">
<path d="M49.6106 42.4764H48.6427V16.8551C48.6427 16.6232 48.4874 16.42 48.2638 16.3589L25.8401 10.2397C25.6164 10.1786 25.4612 9.97538 25.4612 9.74346V4.89113C25.4612 2.57653 20.1225 0.700195 13.5368 0.700195C6.95122 0.700195 1.61242 2.57658 1.61242 4.89113V42.4764H0.644462C0.360386 42.4764 0.130112 42.7068 0.130112 42.9908V44.709C0.130112 44.993 0.360386 45.2233 0.644462 45.2233H49.6106C49.8947 45.2233 50.1249 44.993 50.1249 44.709V42.9907C50.1249 42.7067 49.8947 42.4764 49.6106 42.4764ZM5.6906 36.5378C5.6906 36.7686 5.53655 36.9701 5.3145 37.0331C4.59801 37.2366 3.94376 37.4661 3.36347 37.7175C3.02266 37.8651 2.64209 37.6181 2.64209 37.2467V34.9814C2.64209 34.783 2.75669 34.6034 2.93533 34.5169C3.5418 34.2234 4.2446 33.9561 5.02734 33.7206C5.35755 33.6213 5.6906 33.8684 5.6906 34.2132V36.5378ZM5.6906 31.0405C5.6906 31.2713 5.53655 31.4729 5.3145 31.5359C4.59801 31.7394 3.94376 31.9688 3.36347 32.2203C3.02266 32.3679 2.64209 32.1209 2.64209 31.7495V29.4842C2.64209 29.2858 2.75669 29.1062 2.93533 29.0197C3.5418 28.7262 4.2446 28.4589 5.02734 28.2235C5.35755 28.1241 5.6906 28.3713 5.6906 28.716V31.0405ZM5.6906 25.5433C5.6906 25.7741 5.5365 25.9756 5.3145 26.0386C4.59801 26.2421 3.94376 26.4716 3.36347 26.723C3.02266 26.8705 2.64209 26.6236 2.64209 26.2522V23.987C2.64209 23.7885 2.75669 23.6089 2.93533 23.5225C3.5418 23.2289 4.2446 22.9616 5.02734 22.7262C5.35755 22.6268 5.6906 22.8739 5.6906 23.2187V25.5433ZM5.6906 20.0461C5.6906 20.2768 5.5365 20.4784 5.3145 20.5414C4.59801 20.7449 3.94376 20.9743 3.36347 21.2257C3.02266 21.3733 2.64209 21.1264 2.64209 20.755V18.4897C2.64209 18.2913 2.75669 18.1116 2.93533 18.0252C3.5418 17.7317 4.2446 17.4644 5.02734 17.2289C5.35755 17.1296 5.6906 17.3767 5.6906 17.7215V20.0461ZM5.6906 14.5489C5.6906 14.7797 5.53655 14.9812 5.3145 15.0443C4.59801 15.2477 3.94376 15.4771 3.36347 15.7285C3.02266 15.8762 2.64209 15.6292 2.64209 15.2578V12.9925C2.64209 12.7941 2.75669 12.6145 2.93533 12.528C3.5418 12.2345 4.2446 11.9672 5.02734 11.7317C5.35755 11.6324 5.6906 11.8795 5.6906 12.2243V14.5489ZM5.6906 9.05162C5.6906 9.28241 5.5365 9.48393 5.3145 9.54693C4.59801 9.75041 3.94376 9.97986 3.36347 10.2312C3.02266 10.3788 2.64209 10.1319 2.64209 9.76049V7.49516C2.64209 7.29672 2.75669 7.11712 2.93533 7.03065C3.5418 6.73712 4.2446 6.46981 5.02734 6.23434C5.35755 6.13502 5.6906 6.38212 5.6906 6.72693V9.05162ZM12.8871 35.5165C12.8871 35.7945 12.6658 36.0217 12.3879 36.0302C10.6747 36.0826 9.05609 36.2508 7.5958 36.5126C7.28004 36.5692 6.99 36.3274 6.99 36.0066V33.6558C6.99 33.4087 7.16539 33.1958 7.40827 33.1504C8.90837 32.8707 10.5817 32.6904 12.3571 32.6347C12.6471 32.6256 12.8871 32.859 12.8871 33.1491L12.8871 35.5165ZM12.8871 30.0193C12.8871 30.2973 12.6658 30.5245 12.3879 30.533C10.6747 30.5854 9.05609 30.7536 7.5958 31.0154C7.28004 31.0721 6.99 30.8302 6.99 30.5094V28.1586C6.99 27.9115 7.16539 27.6985 7.40827 27.6532C8.90837 27.3734 10.5817 27.1932 12.3571 27.1375C12.6471 27.1284 12.8871 27.3618 12.8871 27.6519L12.8871 30.0193ZM12.8871 24.5219C12.8871 24.8 12.6658 25.0272 12.3879 25.0357C10.6747 25.0881 9.05609 25.2563 7.5958 25.5181C7.28004 25.5748 6.99 25.3329 6.99 25.0121V22.6612C6.99 22.4142 7.16539 22.2012 7.40827 22.1558C8.90837 21.8761 10.5817 21.6959 12.3571 21.6402C12.6471 21.6311 12.8871 21.8644 12.8871 22.1546L12.8871 24.5219ZM12.8871 19.0247C12.8871 19.3028 12.6658 19.53 12.3879 19.5385C10.6747 19.5909 9.05609 19.7591 7.5958 20.0209C7.28004 20.0775 6.99 19.8357 6.99 19.5149V17.164C6.99 16.917 7.16539 16.704 7.40827 16.6586C8.90837 16.3789 10.5817 16.1986 12.3571 16.1429C12.647 16.1338 12.8871 16.3672 12.8871 16.6573L12.8871 19.0247ZM12.8871 13.5275C12.8871 13.8056 12.6658 14.0328 12.3879 14.0413C10.6747 14.0936 9.05609 14.2619 7.5958 14.5236C7.28004 14.5802 6.99 14.3385 6.99 14.0177V11.6669C6.99 11.4198 7.16539 11.2068 7.40827 11.1615C8.90837 10.8817 10.5817 10.7014 12.3571 10.6457C12.6471 10.6366 12.8871 10.87 12.8871 11.1601L12.8871 13.5275ZM12.8871 8.03023C12.8871 8.30829 12.6658 8.53552 12.3879 8.54401C10.6747 8.59632 9.05609 8.76456 7.5958 9.02636C7.28004 9.08299 6.99 8.8412 6.99 8.5204V6.16959C6.99 5.92255 7.16539 5.70951 7.40827 5.66419C8.90837 5.38444 10.5817 5.20421 12.3571 5.14846C12.6471 5.13935 12.8871 5.37276 12.8871 5.66286L12.8871 8.03023ZM21.3829 6.72698C21.3829 6.38212 21.7159 6.13502 22.0462 6.2344C22.8289 6.46986 23.5317 6.73717 24.1382 7.0307C24.3169 7.11717 24.4314 7.29672 24.4314 7.49521V9.76049C24.4314 10.1319 24.0509 10.3788 23.7101 10.2312C23.1298 9.97981 22.4755 9.75036 21.759 9.54693C21.537 9.48387 21.3829 9.28235 21.3829 9.05162V6.72698ZM20.0835 36.0067C20.0835 36.3274 19.7935 36.5692 19.4778 36.5126C18.0175 36.2508 16.3988 36.0826 14.6857 36.0303C14.4078 36.0218 14.1865 35.7945 14.1865 35.5165V33.1492C14.1865 32.8591 14.4266 32.6257 14.7166 32.6348C16.492 32.6905 18.1653 32.8707 19.6654 33.1505C19.9083 33.1959 20.0837 33.4088 20.0837 33.6559L20.0835 36.0067ZM20.0835 30.5094C20.0835 30.8302 19.7935 31.072 19.4778 31.0154C18.0174 30.7536 16.3988 30.5854 14.6857 30.533C14.4078 30.5245 14.1865 30.2973 14.1865 30.0192V27.6519C14.1865 27.3618 14.4266 27.1284 14.7166 27.1375C16.492 27.1932 18.1653 27.3735 19.6654 27.6532C19.9083 27.6986 20.0837 27.9115 20.0837 28.1586L20.0835 30.5094ZM20.0835 25.0122C20.0835 25.333 19.7935 25.5748 19.4778 25.5181C18.0174 25.2563 16.3988 25.0881 14.6857 25.0358C14.4078 25.0273 14.1865 24.8 14.1865 24.522V22.1547C14.1865 21.8645 14.4266 21.6312 14.7166 21.6403C16.492 21.696 18.1653 21.8763 19.6654 22.1561C19.9083 22.2014 20.0837 22.4143 20.0837 22.6614L20.0835 25.0122ZM20.0835 19.5149C20.0835 19.8357 19.7935 20.0775 19.4778 20.0209C18.0175 19.7591 16.3988 19.5909 14.6857 19.5385C14.4078 19.53 14.1865 19.3028 14.1865 19.0247V16.6574C14.1865 16.3673 14.4266 16.1339 14.7166 16.1431C16.492 16.1988 18.1653 16.379 19.6654 16.6587C19.9083 16.7041 20.0837 16.917 20.0837 17.1641L20.0835 19.5149ZM20.0835 14.0177C20.0835 14.3385 19.7935 14.5802 19.4778 14.5236C18.0175 14.2618 16.3988 14.0936 14.6857 14.0413C14.4078 14.0328 14.1865 13.8056 14.1865 13.5275V11.1602C14.1865 10.8701 14.4266 10.6367 14.7166 10.6458C16.492 10.7015 18.1653 10.8817 19.6654 11.1615C19.9083 11.2068 20.0837 11.4198 20.0837 11.6669L20.0835 14.0177ZM20.0835 8.52045C20.0835 8.84125 19.7935 9.08305 19.4778 9.02642C18.0175 8.76461 16.3988 8.59637 14.6857 8.54406C14.4078 8.53558 14.1865 8.30834 14.1865 8.03028V5.66296C14.1865 5.37282 14.4266 5.13946 14.7166 5.14856C16.492 5.20426 18.1653 5.38449 19.6654 5.6643C19.9083 5.70961 20.0837 5.9226 20.0837 6.16969L20.0835 8.52045ZM21.3829 14.5489V12.2243C21.3829 11.8794 21.7159 11.6323 22.0462 11.7317C22.8289 11.9672 23.5317 12.2345 24.1382 12.528C24.3169 12.6145 24.4314 12.794 24.4314 12.9925V15.2578C24.4314 15.6292 24.0509 15.8762 23.7101 15.7285C23.1298 15.4771 22.4755 15.2477 21.759 15.0443C21.5369 14.9811 21.3829 14.7796 21.3829 14.5489ZM38.045 42.4764H30.124V37.7295C30.124 37.4454 30.3543 37.2151 30.6383 37.2151H37.5306C37.8147 37.2151 38.045 37.4454 38.045 37.7295V42.4764ZM46.174 33.4507C46.174 33.7347 45.9437 33.9651 45.6596 33.9651H23.6208C23.3368 33.9651 23.1065 33.7347 23.1065 33.4507V31.4665C23.1065 31.1824 23.3368 30.9521 23.6208 30.9521H45.6596C45.9437 30.9521 46.174 31.1824 46.174 31.4665V33.4507ZM46.174 28.359C46.174 28.643 45.9437 28.8733 45.6596 28.8733H23.6208C23.3368 28.8733 23.1065 28.643 23.1065 28.359V26.3747C23.1065 26.0906 23.3368 25.8603 23.6208 25.8603H45.6596C45.9437 25.8603 46.174 26.0906 46.174 26.3747V28.359ZM46.174 23.2672C46.174 23.5513 45.9437 23.7815 45.6596 23.7815H23.6208C23.3368 23.7815 23.1065 23.5513 23.1065 23.2672V21.2829C23.1065 20.9989 23.3368 20.7686 23.6208 20.7686H45.6596C45.9437 20.7686 46.174 20.9989 46.174 21.2829V23.2672Z" fill="white"/>
</svg>
