<svg width="60" height="60" viewBox="0 0 60 60" fill="none" xmlns="http://www.w3.org/2000/svg">
<path d="M0 59.9926H10.6734V22.9941L0 25.6613V59.9926ZM3.51563 30.3348H7.03125V39.384H3.51563V30.3348ZM3.51563 45.773H7.03125V56.477H3.51563V45.773Z" fill="#FFC300"/>
<path d="M49.3265 13.278V59.9925H60V10.6108L49.3265 13.278ZM56.4844 56.4769H52.9687V45.773H56.4844V56.4769ZM56.4844 39.9358H52.9687V35.1417H56.4844V39.9358ZM56.4844 29.321H52.9687V20.2718H56.4844V29.321Z" fill="#FFC300"/>
<path d="M24.7955 49.2852H28.2422V59.9925H24.7955V49.2852Z" fill="#FFC300"/>
<path d="M14.1897 59.9923H21.2799V45.7584H38.7202V59.9922H45.8104V0.00732422L14.1897 10.6441V59.9923ZM35.2046 10.9065H38.7202V20.4282H35.2046V10.9065ZM35.2046 26.2547H38.7202V31.0494H35.2046V26.2547ZM35.2046 36.8696H38.7202V41.6642H35.2046V36.8696ZM28.2422 13.2996H31.7579V20.4577H28.2422V13.2996ZM28.2422 26.2843H31.7579V31.079H28.2422V26.2843ZM28.2422 36.8991H31.7579V41.6938H28.2422V36.8991ZM21.2799 15.6336H24.7955V20.4282H21.2799V15.6336ZM21.2799 26.2547H24.7955V31.0494H21.2799V26.2547ZM21.2799 36.8696H24.7955V41.6642H21.2799V36.8696Z" fill="#FFC300"/>
<path d="M31.7578 49.2852H35.2045V59.9925H31.7578V49.2852Z" fill="#FFC300"/>
</svg>
