<svg width="44" height="51" viewBox="0 0 44 51" fill="none" xmlns="http://www.w3.org/2000/svg">
<path d="M22.1273 16.4639C16.8746 16.4639 12.6015 20.737 12.6015 25.9892C12.6015 31.2419 16.8746 35.515 22.1273 35.515C27.3796 35.515 31.6528 31.2419 31.6528 25.9892C31.6528 20.737 27.3796 16.4639 22.1273 16.4639ZM27.7828 24.1954L20.9586 31.0195C20.6722 31.3059 20.2964 31.4494 19.9211 31.4494C19.5458 31.4494 19.1705 31.3063 18.884 31.0195L16.2762 28.4117C15.7033 27.8392 15.7033 26.9104 16.2762 26.3375C16.8487 25.7646 17.7775 25.7646 18.3504 26.3375L19.9211 27.9082L25.7086 22.1212C26.2811 21.5483 27.2099 21.5483 27.7828 22.1212C28.3557 22.6937 28.3557 23.6225 27.7828 24.1954Z" fill="white"/>
<path d="M43.3648 14.5559L43.3633 14.517C43.3415 14.0368 43.327 13.5288 43.3183 12.9635C43.2774 10.2069 41.0861 7.92677 38.3292 7.77267C32.581 7.45189 28.1343 5.57757 24.3349 1.87431L24.3025 1.84341C23.0632 0.707144 21.1938 0.707144 19.9542 1.84341L19.9218 1.87431C16.1224 5.57757 11.6757 7.45189 5.92753 7.77305C3.17094 7.92677 0.979246 10.2069 0.938433 12.9639C0.930042 13.5253 0.915166 14.0334 0.893425 14.517L0.891136 14.6074C0.779377 20.4688 0.640537 27.7636 3.08092 34.3847C4.42279 38.0258 6.45504 41.1909 9.12085 43.7926C12.157 46.7555 16.1338 49.1078 20.9406 50.7837C21.097 50.8383 21.2594 50.8825 21.425 50.9157C21.6584 50.9623 21.8934 50.9855 22.1283 50.9855C22.3633 50.9855 22.5986 50.9623 22.8317 50.9157C22.9972 50.8825 23.1609 50.8379 23.318 50.783C28.1191 49.104 32.0917 46.7506 35.1252 43.788C37.7898 41.1856 39.8221 38.0197 41.1651 34.3779C43.6146 27.7369 43.4762 20.4284 43.3648 14.5559ZM22.1276 38.4484C15.2573 38.4484 9.6682 32.8594 9.6682 25.9892C9.6682 19.1189 15.2573 13.5299 22.1276 13.5299C28.9975 13.5299 34.587 19.1189 34.587 25.9892C34.587 32.8594 28.9975 38.4484 22.1276 38.4484Z" fill="white"/>
</svg>
