<svg width="60" height="54" viewBox="0 0 60 54" fill="none" xmlns="http://www.w3.org/2000/svg">
<path d="M48.0494 31.5854L44.011 37.8463L41.3369 36.7674L32.0181 53.7652H42.966L47.7632 47.4057H51.8821L56.2892 53.7652H60L51.5058 32.5224L48.0494 31.5854Z" fill="#FFC300"/>
<path d="M51.3277 48.4653H48.2922L44.2942 53.7649H55.0005L51.3277 48.4653Z" fill="#FFC300"/>
<path d="M4.25454 43.5911L1.10553 53.7652H5.47767L8.97538 43.6323L9.97384 35.7465H13.3052L16.3027 43.9185L14.4711 53.7652H18.714L20.7999 42.6128L18.714 36.7345L17.9562 34.0752L29.4352 40.5789L27.2814 44.3182L32.2831 47.2001L37.5741 38.016L32.5724 35.134L30.4939 38.742L17.1283 31.1699L16.4076 28.6388L17.7188 23.3275L18.2837 28.1821L19.1911 30.5382L22.7715 32.6316L21.2865 27.3553L20.1387 17.2182L16.4289 17.0656L15.7771 15.2721C18.2626 14.7644 20.1333 12.6224 20.2711 10.0213L9.10385 8.54053C9.02227 8.92204 8.9756 9.31741 8.9756 9.72343C8.9756 11.6832 9.97196 13.4098 11.4855 14.4263L11.387 14.4157L9.15162 16.2949L6.2877 16.0543L0 21.5512V29.9172L4.9944 31.1509L4.25454 43.5911ZM3.17982 26.8783V24.3801L5.29966 22.4436V27.3553L3.17982 26.8783Z" fill="#FFC300"/>
<path d="M20.2222 8.94533L21.9192 9.17001C22.145 4.12584 19.9531 0.825204 15.9846 0.299484C15.6592 0.256034 15.337 0.234863 15.018 0.234863C11.5033 0.234863 8.94565 2.80727 7.94409 7.31718L9.42272 7.51326L20.2222 8.94533Z" fill="#FFC300"/>
</svg>
