<svg width="61" height="60" viewBox="0 0 61 60" fill="none" xmlns="http://www.w3.org/2000/svg">
<path d="M8.45177 10.7222C8.63927 10.7693 8.81085 10.8665 8.94761 11.0031L24.2245 26.2803L26.9889 23.5162L11.7117 8.23903C11.5747 8.10215 11.4778 7.93001 11.4305 7.74196L10.469 3.90911L4.0951 0.265137L0.973846 3.38625L4.61892 9.76455L8.45177 10.7222Z" fill="#FFC300"/>
<path d="M22.0365 45.5698L46.2786 21.3273C46.5442 21.0614 46.9295 20.9549 47.2938 21.0455C50.4855 21.8636 53.8757 21.1547 56.4735 19.128C59.0716 17.1012 60.5828 13.9843 60.5654 10.6895C60.5654 10.4889 60.5595 10.2867 60.5465 10.0827L54.908 15.7205C54.6223 16.0065 54.1986 16.1067 53.8146 15.9786L47.4016 13.8407C47.0823 13.7349 46.8318 13.4845 46.7252 13.1654L44.5878 6.75231C44.4596 6.36881 44.5596 5.94498 44.846 5.65872L50.4843 0.0205534C47.089 -0.190676 43.7972 1.23581 41.6286 3.85669C39.4602 6.47813 38.6766 9.97877 39.52 13.2741C39.6113 13.6389 39.5049 14.0241 39.2391 14.2898L14.9974 38.5306C14.7314 38.7944 14.3466 38.9014 13.982 38.8121C13.138 38.5954 12.2701 38.483 11.3983 38.4796C6.795 38.4493 2.68193 41.3512 1.16629 45.6988C-0.348523 50.046 1.07014 54.8759 4.6956 57.7132C8.32106 60.5506 13.3502 60.7676 17.2061 58.252C21.0623 55.7366 22.8906 51.0468 21.7543 46.5849C21.6639 46.2207 21.7707 45.8349 22.0365 45.5698ZM14 53.4437H8.79742L6.23154 49.1685L8.79742 44.8926H14L16.5653 49.1685L14 53.4437ZM18.125 40.9305L41.6394 17.4158L43.1505 18.9272L19.6361 42.4419L18.125 40.9305Z" fill="#FFC300"/>
<path d="M51.8015 59.4422C54.1822 60.3373 56.8663 59.7568 58.6649 57.9584C60.4636 56.1594 61.0442 53.4749 60.1487 51.0947L51.8015 59.4422Z" fill="#FFC300"/>
<path d="M58.6649 48.7797L46.6601 36.7701C45.3359 37.8832 43.3806 37.7986 42.1567 36.5762C40.9327 35.3541 40.8464 33.3993 41.9575 32.0738L40.2574 30.3716L31.0804 39.549L32.7908 41.2593C34.1149 40.1462 36.0706 40.2306 37.2938 41.4525C38.5177 42.6749 38.6045 44.63 37.4932 45.9557L49.4878 57.9566C49.6187 58.0874 49.7568 58.2087 49.8963 58.3266L59.0352 49.1877C58.9175 49.048 58.7957 48.9104 58.6649 48.7797ZM52.3277 53.1304L41.6394 42.4422L43.1506 40.9308L53.8391 51.6196L52.3277 53.1304Z" fill="#FFC300"/>
</svg>
