<svg width="60" height="60" viewBox="0 0 60 60" fill="none" xmlns="http://www.w3.org/2000/svg">
<g clip-path="url(#clip0_12_2317)">
<path d="M55.6758 17.8358L52.7567 20.6822L53.4456 24.6996L49.8375 22.8035L46.2281 24.6996L46.917 20.6822L43.9978 17.8358L48.0326 17.2499L49.8375 13.5938L51.6411 17.2499L55.6758 17.8358Z" fill="#FFC300"/>
<path d="M38.1595 9.05273L34.058 13.0499L35.027 18.6951C33.1768 17.7223 31.8621 17.0306 29.9578 16.03L24.8894 18.6951L25.8571 13.0499L21.7556 9.05273L27.4231 8.23013L29.9578 3.04688L32.4924 8.23013L38.1595 9.05273Z" fill="#FFC300"/>
<path d="M15.8321 17.8358L12.9129 20.6822L13.6019 24.6996L9.99377 22.8035L6.38431 24.6996L7.07324 20.6822L4.15408 17.8358L8.18881 17.2499L9.99377 13.5938L11.7974 17.2499L15.8321 17.8358Z" fill="#FFC300"/>
<path d="M49.1014 45.2344C45.936 45.2344 42.7861 46.8022 41.0892 49.2046C38.8315 45.4079 34.7002 42.8906 29.9999 42.8906C25.2831 42.8906 21.1582 45.4243 18.9106 49.2046C17.2136 46.8022 14.0638 45.2344 10.8983 45.2344C5.72101 45.2344 1.17175 49.4321 1.17175 54.6094V56.9531H58.828V54.6094C58.828 49.4321 54.2787 45.2344 49.1014 45.2344Z" fill="#FFC300"/>
<path d="M54.9608 37.0312C54.9608 40.2672 52.3374 42.8906 49.1014 42.8906C45.8655 42.8906 43.2421 40.2672 43.2421 37.0312C43.2421 33.7953 45.8655 31.1719 49.1014 31.1719C52.3374 31.1719 54.9608 33.7953 54.9608 37.0312Z" fill="#FFC300"/>
<path d="M38.203 32.3438C38.203 36.8742 34.5304 40.5469 29.9999 40.5469C25.4694 40.5469 21.7968 36.8742 21.7968 32.3438C21.7968 27.8133 25.4694 24.1406 29.9999 24.1406C34.5304 24.1406 38.203 27.8133 38.203 32.3438Z" fill="#FFC300"/>
<path d="M16.7577 37.0312C16.7577 40.2672 14.1342 42.8906 10.8983 42.8906C7.66238 42.8906 5.03894 40.2672 5.03894 37.0312C5.03894 33.7953 7.66238 31.1719 10.8983 31.1719C14.1342 31.1719 16.7577 33.7953 16.7577 37.0312Z" fill="#FFC300"/>
<path d="M31.1718 47.5781C31.1718 48.2254 30.6472 48.75 29.9999 48.75C29.3526 48.75 28.828 48.2254 28.828 47.5781C28.828 46.9308 29.3526 46.4062 29.9999 46.4062C30.6472 46.4062 31.1718 46.9308 31.1718 47.5781Z" fill="#FFC300"/>
<path d="M56.1327 37.0312C56.1327 33.154 52.9787 30 49.1014 30C45.2242 30 42.0702 33.154 42.0702 37.0312C42.0702 40.9085 45.2242 44.0625 49.1014 44.0625C52.9787 44.0625 56.1327 40.9085 56.1327 37.0312ZM49.1014 41.7188C46.5169 41.7188 44.4139 39.6158 44.4139 37.0312C44.4139 34.4467 46.5169 32.3438 49.1014 32.3438C51.686 32.3438 53.7889 34.4467 53.7889 37.0312C53.7889 39.6158 51.686 41.7188 49.1014 41.7188Z" fill="#FFC300"/>
<path d="M49.1014 44.0625C46.1484 44.0625 43.2036 45.2884 41.1977 47.276C38.5573 43.8062 34.486 41.7188 29.9999 41.7188C25.7038 41.7188 21.5409 43.6789 18.8025 47.276C16.7961 45.2888 13.8518 44.0625 10.8983 44.0625C4.99088 44.0625 -0.00012207 48.8924 -0.00012207 54.6094V56.9531C-0.00012207 57.6004 0.524475 58.125 1.17175 58.125H58.828C59.4753 58.125 59.9999 57.6004 59.9999 56.9531V54.6094C59.9999 48.8924 55.0089 44.0625 49.1014 44.0625ZM2.34363 54.6094C2.34363 50.1627 6.26117 46.4062 10.8983 46.4062C13.4357 46.4062 15.952 47.5305 17.5098 49.3176C16.4798 51.3071 15.9374 53.5245 15.9374 55.7812H2.34363V54.6094ZM29.9999 44.0625C36.5207 44.0625 41.7186 49.3533 41.7186 55.7812H18.2811C18.2811 49.2677 23.5852 44.0625 29.9999 44.0625ZM57.6561 55.7812H44.0624C44.0624 53.5245 43.5199 51.3071 42.49 49.3176C44.0477 47.5305 46.5641 46.4062 49.1014 46.4062C53.7386 46.4062 57.6561 50.1627 57.6561 54.6094V55.7812Z" fill="#FFC300"/>
<path d="M17.9296 37.0312C17.9296 33.154 14.7756 30 10.8983 30C7.02106 30 3.86707 33.154 3.86707 37.0312C3.86707 40.9085 7.02106 44.0625 10.8983 44.0625C14.7756 44.0625 17.9296 40.9085 17.9296 37.0312ZM10.8983 41.7188C8.31378 41.7188 6.21082 39.6158 6.21082 37.0312C6.21082 34.4467 8.31378 32.3438 10.8983 32.3438C13.4828 32.3438 15.5858 34.4467 15.5858 37.0312C15.5858 39.6158 13.4828 41.7188 10.8983 41.7188Z" fill="#FFC300"/>
<path d="M39.3749 32.3438C39.3749 27.1742 35.1694 22.9688 29.9999 22.9688C24.8304 22.9688 20.6249 27.1742 20.6249 32.3438C20.6249 37.5133 24.8304 41.7188 29.9999 41.7188C35.1694 41.7188 39.3749 37.5133 39.3749 32.3438ZM29.9999 39.375C26.1226 39.375 22.9686 36.221 22.9686 32.3438C22.9686 28.4665 26.1226 25.3125 29.9999 25.3125C33.8771 25.3125 37.0311 28.4665 37.0311 32.3438C37.0311 36.221 33.8771 39.375 29.9999 39.375Z" fill="#FFC300"/>
<path d="M39.2742 8.69064C39.1364 8.2663 38.7697 7.95731 38.328 7.89322L33.2733 7.15942L31.0102 2.53235C30.8138 2.12997 30.4054 1.875 29.9578 1.875C29.5101 1.875 29.1017 2.12997 28.9049 2.53189L26.6422 7.15942L21.5875 7.89276C21.1458 7.95685 20.7791 8.2663 20.6413 8.69064C20.5036 9.11499 20.6185 9.58054 20.938 9.89182L24.5983 13.4592L23.7345 18.4969C23.6589 18.9363 23.8397 19.3808 24.2009 19.6426C24.5598 19.9036 25.0377 19.9406 25.4351 19.7319L29.9578 17.3538L34.4823 19.7319C34.8769 19.9397 35.3553 19.9049 35.7164 19.6426C36.0771 19.3803 36.258 18.9363 36.1824 18.4964L35.3177 13.4592L38.9775 9.89182C39.2971 9.58054 39.412 9.11499 39.2742 8.69064ZM33.2399 12.2108C32.9639 12.48 32.8375 12.8682 32.903 13.2481L33.4702 16.5527L30.503 14.9927C30.1615 14.8132 29.7536 14.8132 29.4121 14.9927L26.4458 16.5527L27.0125 13.2481C27.0775 12.8677 26.9512 12.48 26.6751 12.2108L24.2746 9.87122L27.5911 9.38965C27.9747 9.33426 28.3057 9.09256 28.4755 8.74466L29.9578 5.71426L31.4395 8.74466C31.6098 9.09302 31.9408 9.33426 32.3239 9.38965L35.6409 9.87122L33.2399 12.2108Z" fill="#FFC300"/>
<path d="M56.79 17.4738C56.6523 17.0494 56.2856 16.7404 55.8439 16.6763L52.4193 16.1787L50.8881 13.0751C50.6908 12.675 50.2839 12.4219 49.8375 12.4219C49.8375 12.4219 49.8375 12.4219 49.8371 12.4219C49.3912 12.4219 48.9838 12.675 48.7865 13.0751L47.2544 16.1787L43.8294 16.6763C43.3881 16.7404 43.0214 17.0494 42.8836 17.4738C42.7454 17.8981 42.8603 18.3636 43.1798 18.6749L45.6577 21.0915L45.0727 24.5018C44.9976 24.9413 45.178 25.3853 45.5391 25.6476C45.8998 25.9099 46.3782 25.9447 46.7728 25.7373L49.8371 24.1273L52.9004 25.7373C53.295 25.9447 53.7738 25.9099 54.1346 25.6476C54.4953 25.3857 54.6756 24.9413 54.6006 24.5018L54.0155 21.0915L56.4939 18.6749C56.8134 18.3636 56.9278 17.8981 56.79 17.4738ZM51.9387 19.8436C51.6622 20.1128 51.5363 20.5005 51.6018 20.8804L51.8892 22.5577L50.3827 21.7662C50.0412 21.5868 49.6334 21.5868 49.2923 21.7662L47.7845 22.5581L48.0724 20.8804C48.1374 20.5005 48.0115 20.1128 47.7355 19.8436L46.516 18.6543L48.201 18.4099C48.5828 18.3545 48.9128 18.1146 49.0836 17.769L49.8371 16.2424L50.5901 17.7686C50.7608 18.1146 51.0909 18.3545 51.4727 18.4099L53.1577 18.6543L51.9387 19.8436Z" fill="#FFC300"/>
<path d="M16.9463 17.4738C16.8085 17.0494 16.4418 16.7404 16.0001 16.6763L12.5756 16.1787L11.0443 13.0751C10.847 12.675 10.4401 12.4219 9.99378 12.4219C9.54746 12.4219 9.14005 12.675 8.94275 13.0751L7.41062 16.1787L3.98563 16.6763C3.54435 16.7404 3.17768 17.0494 3.03989 17.4738C2.90165 17.8981 3.01654 18.3636 3.33606 18.6749L5.81394 21.0915L5.22937 24.5018C5.15384 24.9413 5.33466 25.3853 5.69538 25.6476C6.05609 25.9099 6.53446 25.9447 6.92951 25.7373L9.99332 24.1273L13.0567 25.7373C13.454 25.946 13.9319 25.9085 14.2908 25.6476C14.6515 25.3857 14.8323 24.9413 14.7568 24.5018L14.1718 21.0915L16.6501 18.6749C16.9696 18.3636 17.0841 17.8981 16.9463 17.4738ZM12.0945 19.8436C11.8184 20.1128 11.6925 20.5005 11.7575 20.8804L12.0455 22.5577L10.5385 21.7662C10.1975 21.5868 9.78961 21.5868 9.44858 21.7662L7.94025 22.5581L8.22818 20.8804C8.29364 20.5005 8.1673 20.1128 7.89127 19.8436L6.67179 18.6543L8.35727 18.4099C8.73859 18.3545 9.06864 18.1146 9.23938 17.769L9.99286 16.2424L10.7459 17.7686C10.9166 18.1146 11.2467 18.3545 11.6285 18.4099L13.3135 18.6543L12.0945 19.8436Z" fill="#FFC300"/>
<path d="M35.1351 47.9408C34.594 47.5851 33.8675 47.7357 33.5123 48.2768C33.1566 48.8174 33.3072 49.5439 33.8483 49.8996C34.9318 50.6114 35.7979 51.6038 36.3527 52.7693C36.6301 53.3529 37.3287 53.6024 37.9142 53.3236C38.4987 53.0458 38.7468 52.3463 38.469 51.7622C37.7301 50.2095 36.577 48.8879 35.1351 47.9408Z" fill="#FFC300"/>
</g>
<defs>
<clipPath id="clip0_12_2317">
<rect width="60" height="60" fill="white"/>
</clipPath>
</defs>
</svg>
