<svg width="50" height="50" viewBox="0 0 50 50" fill="none" xmlns="http://www.w3.org/2000/svg">
<g clip-path="url(#clip0_806_2)">
<path d="M4.39453 17.6724H1.46484C0.655176 17.6724 0 18.3275 0 19.1372C0 19.9469 0.655176 20.6021 1.46484 20.6021H4.39453C5.2042 20.6021 5.85938 19.9469 5.85938 19.1372C5.85938 18.3275 5.2042 17.6724 4.39453 17.6724Z" fill="white"/>
<path d="M5.09876 10.35L3.02737 8.27874C2.4552 7.70657 1.52815 7.70657 0.955981 8.27874C0.383813 8.8509 0.383813 9.77795 0.955981 10.3501L3.02737 12.4214C3.59963 12.9937 4.52649 12.9937 5.09876 12.4214C5.67092 11.8492 5.67092 10.9222 5.09876 10.35Z" fill="white"/>
<path d="M5.09876 25.854C4.52659 25.2818 3.59954 25.2817 3.02737 25.854L0.955981 27.9253C0.383813 28.4975 0.383813 29.4246 0.955981 29.9967C1.52825 30.569 2.4551 30.569 3.02737 29.9967L5.09876 27.9253C5.67092 27.3532 5.67092 26.4261 5.09876 25.854Z" fill="white"/>
<path d="M48.5305 17.6724H45.6008C44.7912 17.6724 44.136 18.3275 44.136 19.1372C44.136 19.9469 44.7912 20.6021 45.6008 20.6021H48.5305C49.3402 20.6021 49.9954 19.9469 49.9954 19.1372C49.9954 18.3275 49.3402 17.6724 48.5305 17.6724Z" fill="white"/>
<path d="M49.0394 8.27873C48.4673 7.70657 47.5402 7.70657 46.968 8.27873L44.8967 10.3501C44.3245 10.9223 44.3245 11.8493 44.8967 12.4215C45.4689 12.9938 46.3958 12.9938 46.968 12.4215L49.0394 10.3501C49.6116 9.77795 49.6116 8.8509 49.0394 8.27873Z" fill="white"/>
<path d="M49.0394 27.9252L46.968 25.8539C46.3959 25.2818 45.4688 25.2818 44.8967 25.8539C44.3245 26.4261 44.3245 27.3531 44.8967 27.9253L46.968 29.9966C47.5403 30.5689 48.4672 30.5689 49.0394 29.9966C49.6116 29.4244 49.6116 28.4974 49.0394 27.9252Z" fill="white"/>
<path d="M36.0763 3.9292C31.9454 0.570791 26.5258 -0.722227 21.2235 0.39337C14.6123 1.77368 9.22842 7.23801 7.82671 13.8462C6.63523 19.469 8.10559 25.1131 11.8589 29.3327C13.3763 31.0402 14.302 33.1011 14.6056 35.2486H19.1394V22.0665C19.1394 21.4993 23.4343 13.1306 23.688 12.6233C24.1858 11.6307 25.8106 11.6307 26.3084 12.6233C26.5741 13.1547 30.8569 21.5277 30.8569 22.0665V35.2486H35.3958C35.7098 33.1114 36.6626 31.0176 38.2233 29.2369C41.0297 26.0372 42.5745 21.9291 42.5745 17.6724C42.5745 12.3558 40.2058 7.28478 36.0763 3.9292Z" fill="white"/>
<path d="M24.9977 24.8669C24.0073 24.8669 23.0207 24.6944 22.068 24.3794V35.2485H27.9274V24.3794C26.9746 24.6944 25.9881 24.8669 24.9977 24.8669Z" fill="white"/>
<path d="M14.7445 38.1777V39.6426C14.7445 42.0658 16.7156 44.0371 19.1386 44.0371H30.8561C33.2791 44.0371 35.2502 42.0658 35.2502 39.6426V38.1777H14.7445Z" fill="white"/>
<path d="M24.9977 16.5537L22.5769 21.3953C24.1414 22.0362 25.8541 22.0362 27.4185 21.3953L24.9977 16.5537Z" fill="white"/>
<path d="M17.9437 46.9658C18.5504 48.6672 20.161 49.9932 22.068 49.9932H27.9268C29.8338 49.9932 31.4444 48.6672 32.051 46.9658H17.9437Z" fill="white"/>
</g>
<defs>
<clipPath id="clip0_806_2">
<rect width="49.9948" height="49.9944" fill="white"/>
</clipPath>
</defs>
</svg>
