<svg width="60" height="60" viewBox="0 0 60 60" fill="none" xmlns="http://www.w3.org/2000/svg">
<path d="M38.9262 50.625H21.0739C20.3157 50.625 19.6992 51.2414 19.6992 51.9996V60H40.3008V51.9996C40.3008 51.2414 39.6844 50.625 38.9262 50.625Z" fill="#FFC300"/>
<path d="M1.75781 11.7193H19.4309C19.7496 11.7193 20.0625 11.6405 20.3355 11.4913L26.1949 8.29512C27.1741 7.76238 27.3425 6.53004 26.5336 5.79469L20.6742 0.467695C20.3449 0.168281 19.8973 0 19.4309 0H1.75781C0.7875 0 0 0.715898 0 1.59809V10.1212C0 11.0033 0.7875 11.7193 1.75781 11.7193Z" fill="#FFC300"/>
<path d="M54.1041 19.516H53.0292C56.284 17.5873 58.4647 14.0413 58.4647 9.98466C58.4647 5.66079 55.9867 1.91677 52.3729 0.0946166C51.7815 -0.203508 51.0831 0.236296 51.0839 0.898757L51.0831 8.97567L47.3914 11.3424L43.7023 8.97497V0.898874C43.7031 0.236413 43.0045 -0.203391 42.4133 0.0947338C38.7995 1.91688 36.3198 5.66091 36.3214 9.98477C36.3214 14.4741 38.9936 18.3385 42.8334 20.0771V32.4067H51.9529V23.0317H54.1041C55.4166 23.0317 56.4844 24.0995 56.4844 25.412V35.9223H3.51562V25.412C3.51562 24.0995 4.58332 23.0317 5.89594 23.0317H7.61719V32.4067H16.9922V15.234H7.61719V19.516H5.89594C2.6448 19.516 0 22.1609 0 25.4119V37.68V49.1832C0 55.1468 4.85273 59.9996 10.8164 59.9996H16.1836V51.9992C16.1836 49.3027 18.3773 47.109 21.0738 47.109H38.9262C41.6227 47.109 43.8164 49.3027 43.8164 51.9992V59.9996H49.1836C55.1473 59.9996 60 55.1468 60 49.1832V37.68V25.4119C60 22.1609 57.3552 19.516 54.1041 19.516Z" fill="#FFC300"/>
<path d="M22.357 16.0674V18.6936H27.0961C28.0676 18.6936 28.8539 19.4799 28.8539 20.4514C28.8539 21.4217 28.0676 22.2092 27.0961 22.2092H22.357V25.4436H27.0961C28.0676 25.4436 28.8539 26.2299 28.8539 27.2014C28.8539 28.1717 28.0676 28.9592 27.0961 28.9592H22.357V32.4069H35.2992V16.0674C35.2992 15.0971 34.5129 14.3096 33.5414 14.3096H24.1148C23.1433 14.3096 22.357 15.0971 22.357 16.0674Z" fill="#FFC300"/>
</svg>
