<svg width="61" height="60" viewBox="0 0 61 60" fill="none" xmlns="http://www.w3.org/2000/svg">
<path d="M59.5882 27.1218L31.8375 0.521518C31.1129 -0.173839 29.9675 -0.173839 29.2429 0.521518L1.46471 27.1493C0.87693 27.7371 0.539551 28.5469 0.539551 29.3745C0.539551 31.0971 1.94217 32.4997 3.66477 32.4997H8.03971V55.0002C8.03971 57.7624 10.2773 60 13.04 60H48.0404C50.8031 60 53.0407 57.7624 53.0407 55.0002V32.4997H57.4156C59.1382 32.4997 60.5408 31.0971 60.5408 29.3745C60.5408 28.5469 60.2034 27.7371 59.5882 27.1218Z" fill="#FFC300"/>
<path d="M41.4267 33.2342C40.9231 33.1883 40.4778 33.5593 40.4319 34.0628L40.3106 35.3935C38.2524 32.1614 34.6798 30.001 30.5402 30.001C26.0869 30.001 22.1624 32.5426 20.2142 36.3573C19.9842 36.8076 20.1628 37.3591 20.6132 37.5891C21.0636 37.8191 21.6149 37.6405 21.8449 37.1902C23.4937 33.9618 26.8046 31.8321 30.5402 31.8321C33.945 31.8321 37.0176 33.6051 38.778 36.3827L37.4725 35.4503C37.061 35.1565 36.4892 35.2518 36.1954 35.6633C35.9016 36.0747 35.9969 36.6465 36.4083 36.9404L40.3669 39.7676C40.9471 40.1812 41.7473 39.8026 41.8108 39.1058L42.2553 34.2291C42.3013 33.7255 41.9303 33.2801 41.4267 33.2342Z" fill="white"/>
<path d="M40.4672 45.851C40.0169 45.6211 39.4654 45.7996 39.2354 46.2499C37.5867 49.4784 34.2757 51.6081 30.5402 51.6081C27.1354 51.6081 24.0627 49.835 22.3024 47.0574L23.6078 47.9898C24.0193 48.2836 24.5911 48.1883 24.885 47.7769C25.1788 47.3654 25.0835 46.7936 24.6721 46.4997L20.7135 43.6725C20.1404 43.263 19.3337 43.6303 19.2696 44.3344L18.8251 49.211C18.7792 49.7146 19.1502 50.16 19.6537 50.2059C20.1579 50.2517 20.6027 49.8803 20.6486 49.3772L20.7699 48.0465C22.8279 51.2787 26.4006 53.4391 30.5402 53.4391C34.9934 53.4391 38.918 50.8975 40.8662 47.0828C41.0962 46.6325 40.9175 46.081 40.4672 45.851Z" fill="white"/>
</svg>
