<svg width="61" height="58" viewBox="0 0 61 58" fill="none" xmlns="http://www.w3.org/2000/svg">
<path d="M34.4712 44.4282H14.4868C13.6991 44.4282 13.0607 45.0666 13.0607 45.8543V55.8464C13.0607 56.6341 13.6991 57.2725 14.4868 57.2725H34.4712C35.2589 57.2725 35.8973 56.6341 35.8973 55.8464V45.8545C35.8973 45.0668 35.2589 44.4282 34.4712 44.4282Z" fill="#FFC300"/>
<path d="M59.1141 44.4282H39.1294C38.3418 44.4282 37.7034 45.0666 37.7034 45.8543V55.8464C37.7034 56.6341 38.3418 57.2725 39.1294 57.2725H59.1141C59.9018 57.2725 60.5402 56.6341 60.5402 55.8464V45.8545C60.5402 45.0668 59.9018 44.4282 59.1141 44.4282Z" fill="#FFC300"/>
<path d="M14.4868 28.1385H34.4712C35.2589 28.1385 35.8973 27.5001 35.8973 26.7124V16.7205C35.8973 15.9328 35.2589 15.2944 34.4712 15.2944H14.4868C13.6991 15.2944 13.0607 15.9328 13.0607 16.7205V26.7124C13.0607 27.4999 13.6991 28.1385 14.4868 28.1385Z" fill="#FFC300"/>
<path d="M59.1141 15.2944H39.1294C38.3418 15.2944 37.7034 15.9328 37.7034 16.7205V26.7124C37.7034 27.5001 38.3418 28.1385 39.1294 28.1385H59.1141C59.9018 28.1385 60.5402 27.5001 60.5402 26.7124V16.7205C60.5402 15.933 59.9018 15.2944 59.1141 15.2944Z" fill="#FFC300"/>
<path d="M26.5014 13.5716H46.4861C47.2737 13.5716 47.9121 12.9332 47.9121 12.1455V2.1536C47.9121 1.36592 47.2737 0.727539 46.4861 0.727539H26.5014C25.7137 0.727539 25.0753 1.36592 25.0753 2.1536V12.1455C25.0753 12.933 25.7137 13.5716 26.5014 13.5716Z" fill="#FFC300"/>
<path d="M25.4886 31.2874V41.2797C25.4886 42.0674 26.127 42.7058 26.9147 42.7058H46.8991C47.6868 42.7058 48.3252 42.0674 48.3252 41.2797V31.2874C48.3252 30.4997 47.6868 29.8613 46.8991 29.8613H26.9147C26.127 29.8611 25.4886 30.4997 25.4886 31.2874Z" fill="#FFC300"/>
<path d="M23.3769 41.2797V31.2874C23.3769 30.4997 22.7385 29.8613 21.9509 29.8613H1.96622C1.17854 29.8613 0.540161 30.4997 0.540161 31.2874V41.2797C0.540161 42.0674 1.17854 42.7058 1.96622 42.7058H21.9509C22.7385 42.706 23.3769 42.0674 23.3769 41.2797Z" fill="#FFC300"/>
</svg>
