<svg width="60" height="60" viewBox="0 0 60 60" fill="none" xmlns="http://www.w3.org/2000/svg">
<path d="M26.5935 46.8688C24.2544 49.0303 21.0192 49.5144 18.1498 48.1328C17.1124 47.6332 16.237 46.9434 15.5517 46.1173L11.6446 54.7591C11.4668 55.1523 11.6653 55.4487 11.7588 55.5578C11.8523 55.6668 12.115 55.908 12.5305 55.7925L15.3749 55.0008C15.699 54.9107 16.0267 54.8672 16.3498 54.8672C17.7128 54.8672 18.9956 55.6386 19.6133 56.917L20.8979 59.5754C21.0855 59.9639 21.4375 60.0027 21.5839 59.9998C21.7276 59.9979 22.0811 59.9513 22.2587 59.5581L28.4735 45.8115C27.7907 46.008 27.144 46.36 26.5935 46.8688Z" fill="#FFC300"/>
<path d="M48.3551 54.7591L44.4479 46.1173C43.7626 46.9436 42.8872 47.6333 41.8499 48.1328C38.9803 49.5144 35.7452 49.0303 33.4062 46.8688C32.8556 46.36 32.209 46.008 31.5259 45.8115L37.7407 59.5581C37.9185 59.9514 38.2719 59.9979 38.4155 59.9998C38.5619 60.0027 38.9139 59.9639 39.1015 59.5754L40.3861 56.917C41.0037 55.6386 42.2866 54.8672 43.6496 54.8672C43.9727 54.8672 44.3005 54.9107 44.6245 55.0008L47.4689 55.7925C47.8844 55.9082 48.1472 55.6669 48.2406 55.5578C48.3343 55.4486 48.5328 55.1522 48.3551 54.7591Z" fill="#FFC300"/>
<path d="M51.4242 24.3505C48.1793 22.1286 47.1724 17.7171 49.132 14.3073C50.3099 12.2576 49.6969 10.2321 48.7304 9.02004C47.7639 7.80832 45.9254 6.76008 43.6652 7.45207C39.9054 8.60367 35.8281 6.64055 34.3839 2.98242C33.5157 0.783516 31.5499 0 29.9999 0C28.4498 0 26.484 0.783516 25.6159 2.98254C24.1717 6.64078 20.0947 8.60367 16.3345 7.45219C14.0741 6.76031 12.236 7.80832 11.2693 9.02016C10.3029 10.2322 9.68987 12.2575 10.8677 14.3074C12.8273 17.7171 11.8205 22.1288 8.57553 24.3506C6.62483 25.6864 6.29846 27.7772 6.64323 29.2884C6.98799 30.7997 8.1894 32.5417 10.5265 32.8988C14.414 33.4927 17.2352 37.0303 16.9494 40.9527C16.7774 43.3106 18.2086 44.8695 19.6051 45.5421C21.0017 46.2146 23.1128 46.3618 24.849 44.7572C26.293 43.4228 28.1468 42.7553 29.9998 42.7553C31.8534 42.7553 33.7062 43.4224 35.1504 44.7572C36.8869 46.362 38.998 46.2148 40.3945 45.5421C41.791 44.8696 43.2221 43.3107 43.0502 40.9528C42.7644 37.0304 45.5856 33.4928 49.4731 32.8988C51.8102 32.5417 53.0114 30.7996 53.3564 29.2884C53.7013 27.777 53.3747 25.6862 51.4242 24.3505ZM29.9999 39.366C21.495 39.366 14.5758 32.4468 14.5758 23.9419C14.5758 15.437 21.4949 8.51766 29.9999 8.51766C38.5049 8.51766 45.424 15.4369 45.424 23.9418C45.4238 32.4466 38.5047 39.366 29.9999 39.366Z" fill="#FFC300"/>
<path d="M29.9998 11.3936C23.0805 11.3936 17.4514 17.0228 17.4514 23.9419C17.4514 30.861 23.0804 36.4902 29.9998 36.4902C36.9191 36.4902 42.5481 30.861 42.5481 23.9419C42.5481 17.0228 36.919 11.3936 29.9998 11.3936ZM36.4304 22.7252L28.6208 28.4293C28.373 28.6104 28.0755 28.7061 27.7727 28.7061C27.6947 28.7061 27.6163 28.6998 27.5382 28.6869C27.1575 28.624 26.8179 28.4106 26.5959 28.0946L24.2599 24.7686C23.8035 24.1186 23.9604 23.2218 24.6102 22.7653C25.2601 22.3089 26.1568 22.4657 26.6134 23.1156L28.1075 25.243L34.7342 20.4029C35.3756 19.9348 36.2753 20.0745 36.7435 20.7159C37.2119 21.3572 37.0717 22.2567 36.4304 22.7252Z" fill="#FFC300"/>
</svg>
